# This file uses centimeters as units for non-parametric coordinates.

g default
v 1.217125 0.618941 -1.341841
v 0.268117 0.618941 -2.031336
v -0.904921 0.618941 -2.031336
v -1.853929 0.618941 -1.341841
v -2.216417 0.618941 -0.226214
v -1.853929 0.618941 0.889412
v -0.904921 0.618941 1.578907
v 0.268117 0.618941 1.578907
v 1.217125 0.618941 0.889412
v 1.579613 0.618941 -0.226214
v 1.212878 1.070087 -1.338755
v 0.266496 1.070087 -2.026340
v -0.903299 1.070087 -2.026340
v -1.849682 1.070087 -1.338755
v -2.211169 1.070087 -0.226214
v -1.849682 1.070087 0.886327
v -0.903299 1.070087 1.573911
v 0.266496 1.070087 1.573911
v 1.212878 1.070087 0.886327
v 1.574366 1.070087 -0.226214
vt 0.375000 0.312500
vt 0.400000 0.312500
vt 0.425000 0.312500
vt 0.450000 0.312500
vt 0.475000 0.312500
vt 0.500000 0.312500
vt 0.525000 0.312500
vt 0.550000 0.312500
vt 0.575000 0.312500
vt 0.600000 0.312500
vt 0.625000 0.312500
vt 1.000000 1.000000
vt 0.000000 1.000000
vt 1.000000 1.000000
vt 0.000000 1.000000
vt 1.000000 1.000000
vt 0.000000 1.000000
vt 1.000000 1.000000
vt 0.000000 1.000000
vt 1.000000 1.000000
vt 0.000000 1.000000
vt 1.000000 1.000000
vt 0.000000 1.000000
vt 1.000000 1.000000
vt 0.000000 1.000000
vt 1.000000 1.000000
vt 0.000000 1.000000
vt 1.000000 1.000000
vt 0.000000 1.000000
vt 1.000000 1.000000
vt 0.000000 1.000000
vn 0.587749 0.011068 -0.808968
vn 0.587749 0.011068 -0.808968
vn 0.587749 0.011068 -0.808968
vn 0.587749 0.011068 -0.808968
vn 0.000000 0.011072 -0.999939
vn 0.000000 0.011072 -0.999939
vn 0.000000 0.011072 -0.999939
vn 0.000000 0.011072 -0.999939
vn -0.587749 0.011068 -0.808968
vn -0.587749 0.011068 -0.808968
vn -0.587749 0.011068 -0.808968
vn -0.587749 0.011068 -0.808968
vn -0.950998 0.011064 -0.308998
vn -0.950998 0.011064 -0.308998
vn -0.950998 0.011064 -0.308998
vn -0.950998 0.011064 -0.308998
vn -0.950998 0.011064 0.308998
vn -0.950998 0.011064 0.308998
vn -0.950998 0.011064 0.308998
vn -0.950998 0.011064 0.308998
vn -0.587749 0.011067 0.808968
vn -0.587748 0.011067 0.808968
vn -0.587748 0.011067 0.808968
vn -0.587748 0.011067 0.808968
vn 0.000000 0.011073 0.999939
vn 0.000000 0.011073 0.999939
vn 0.000000 0.011073 0.999939
vn 0.000000 0.011073 0.999939
vn 0.587749 0.011068 0.808968
vn 0.587749 0.011068 0.808968
vn 0.587749 0.011068 0.808968
vn 0.587749 0.011068 0.808968
vn 0.950998 0.011063 0.308998
vn 0.950998 0.011063 0.308998
vn 0.950998 0.011063 0.308998
vn 0.950998 0.011063 0.308998
vn 0.950998 0.011064 -0.308998
vn 0.950998 0.011064 -0.308998
vn 0.950998 0.011064 -0.308998
vn 0.950998 0.011064 -0.308998
s off
g pCylinder21
f 2/2/1 12/12/2 11/13/3 1/1/4
f 3/3/5 13/14/6 12/15/7 2/2/8
f 4/4/9 14/16/10 13/17/11 3/3/12
f 5/5/13 15/18/14 14/19/15 4/4/16
f 6/6/17 16/20/18 15/21/19 5/5/20
f 7/7/21 17/22/22 16/23/23 6/6/24
f 8/8/25 18/24/26 17/25/27 7/7/28
f 9/9/29 19/26/30 18/27/31 8/8/32
f 10/10/33 20/28/34 19/29/35 9/9/36
f 1/11/37 11/30/38 20/31/39 10/10/40
g default
v 3.445576 0.034626 -1.403640
v 2.884954 0.034626 -2.503924
v 2.011763 0.034626 -3.377115
v 0.911479 0.034626 -3.937737
v -0.308195 0.034626 -4.130914
v -1.527870 0.034626 -3.937737
v -2.628153 0.034626 -3.377114
v -3.501344 0.034626 -2.503924
v -4.061965 0.034626 -1.403640
v -4.255143 0.034626 -0.183966
v -4.061965 0.034626 1.035708
v -3.501343 0.034626 2.135992
v -2.628153 0.034626 3.009181
v -1.527870 0.034626 3.569804
v -0.308196 0.034626 3.762981
v 0.911478 0.034626 3.569804
v 2.011762 0.034626 3.009181
v 2.884952 0.034626 2.135992
v 3.445575 0.034626 1.035708
v 3.638751 0.034626 -0.183966
v -0.308196 0.623713 -0.183966
v 2.014340 0.472070 -0.938604
v 1.667472 0.472070 -1.619371
v 1.127210 0.472070 -2.159633
v 0.446442 0.472070 -2.506502
v -0.308196 0.472070 -2.626024
v -1.062833 0.472070 -2.506502
v -1.743601 0.472070 -2.159632
v -2.283862 0.472070 -1.619371
v -2.630730 0.472070 -0.938603
v -2.750254 0.472070 -0.183966
v -2.630730 0.472070 0.570671
v -2.283862 0.472070 1.251439
v -1.743601 0.472070 1.791700
v -1.062833 0.472070 2.138569
v -0.308196 0.472070 2.258091
v 0.446441 0.472070 2.138568
v 1.127209 0.472070 1.791700
v 1.667470 0.472070 1.251439
v 2.014338 0.472070 0.570671
v 2.133862 0.472070 -0.183966
v 1.540078 0.608551 -0.784507
v 1.432712 0.623713 -0.749622
v 1.635192 0.608551 -0.183966
v 1.522302 0.623713 -0.183966
v 1.264039 0.608551 -1.326262
v 1.172709 0.623713 -1.259906
v 0.834100 0.608551 -1.756201
v 0.767744 0.623713 -1.664871
v 0.292345 0.608551 -2.032238
v 0.257460 0.623713 -1.924873
v -0.308196 0.608551 -2.127355
v -0.308196 0.623713 -2.014464
v -0.908736 0.608551 -2.032238
v -0.873851 0.623713 -1.924873
v -1.450491 0.608551 -1.756200
v -1.384135 0.623713 -1.664870
v -1.880430 0.608551 -1.326261
v -1.789099 0.623713 -1.259906
v -2.156468 0.608551 -0.784506
v -2.049102 0.623713 -0.749621
v -2.251585 0.608551 -0.183966
v -2.138694 0.623713 -0.183966
v -2.156468 0.608551 0.416574
v -2.049102 0.623713 0.381689
v -1.880430 0.608551 0.958329
v -1.789099 0.623713 0.891973
v -1.450491 0.608551 1.388268
v -1.384135 0.623713 1.296938
v -0.908736 0.608551 1.664306
v -0.873851 0.623713 1.556941
v -0.308196 0.608551 1.759422
v -0.308196 0.623713 1.646532
v 0.292344 0.608551 1.664306
v 0.257459 0.623713 1.556941
v 0.834099 0.608551 1.388268
v 0.767743 0.623713 1.296937
v 1.264038 0.608551 0.958328
v 1.172708 0.623713 0.891973
v 1.540076 0.608551 0.416574
v 1.432711 0.623713 0.381689
v 1.515927 0.634047 -0.776659
v 1.462381 0.641418 -0.759262
v 1.553498 0.641418 -0.183966
v 1.609798 0.634047 -0.183966
v 1.243495 0.634047 -1.311336
v 1.197947 0.641418 -1.278243
v 1.462379 0.641418 0.391329
v 1.515925 0.634047 0.408727
v 0.819174 0.634047 -1.735657
v 0.786081 0.641418 -1.690109
v 0.284497 0.634047 -2.008088
v 0.267099 0.641418 -1.954542
v -0.308196 0.634047 -2.101962
v -0.308196 0.641418 -2.045660
v -0.900889 0.634047 -2.008088
v -0.883491 0.641418 -1.954542
v -1.435565 0.634047 -1.735656
v -1.402472 0.641418 -1.690108
v -1.859886 0.634047 -1.311335
v -1.814338 0.641418 -1.278242
v -2.132317 0.634047 -0.776659
v -2.078771 0.641418 -0.759261
v -2.226191 0.634047 -0.183966
v -2.169889 0.641418 -0.183966
v -2.132317 0.634047 0.408727
v -2.078771 0.641418 0.391329
v -1.859886 0.634047 0.943403
v -1.814338 0.641418 0.910310
v -1.435565 0.634047 1.367724
v -1.402472 0.641418 1.322176
v -0.900889 0.634047 1.640155
v -0.883491 0.641418 1.586609
v -0.308196 0.634047 1.734029
v -0.308196 0.641418 1.677727
v 0.284497 0.634047 1.640155
v 0.267099 0.641418 1.586609
v 0.819173 0.634047 1.367724
v 0.786080 0.641418 1.322176
v 1.243494 0.634047 0.943403
v 1.197946 0.641418 0.910310
vt 0.375000 0.312500
vt 0.387500 0.312501
vt 0.387500 0.650004
vt 0.375000 0.650004
vt 0.400000 0.312500
vt 0.400000 0.650004
vt 0.412500 0.312500
vt 0.412500 0.650004
vt 0.425000 0.312500
vt 0.425000 0.650004
vt 0.437500 0.312500
vt 0.437500 0.650004
vt 0.450000 0.312500
vt 0.450000 0.650004
vt 0.462500 0.312500
vt 0.462500 0.650004
vt 0.475000 0.312500
vt 0.475000 0.650004
vt 0.487500 0.312500
vt 0.487500 0.650004
vt 0.500000 0.312500
vt 0.500000 0.650004
vt 0.512500 0.312500
vt 0.512500 0.650004
vt 0.525000 0.312500
vt 0.525000 0.650004
vt 0.537500 0.312500
vt 0.537500 0.650004
vt 0.550000 0.312500
vt 0.550000 0.650004
vt 0.562500 0.312500
vt 0.562500 0.650004
vt 0.575000 0.312500
vt 0.575000 0.650004
vt 0.587500 0.312500
vt 0.587500 0.650004
vt 0.600000 0.312500
vt 0.600000 0.650004
vt 0.612500 0.312500
vt 0.612500 0.650004
vt 0.625000 0.312500
vt 0.625000 0.650004
vt 0.624487 0.683751
vt 0.624361 0.687282
vt 0.613378 0.687500
vt 0.613215 0.683751
vt 0.375879 0.687500
vt 0.375715 0.683751
vt 0.386987 0.683751
vt 0.386861 0.687282
vt 0.611987 0.683751
vt 0.611861 0.687282
vt 0.600878 0.687500
vt 0.600715 0.683751
vt 0.388379 0.687500
vt 0.388215 0.683751
vt 0.399487 0.683751
vt 0.399361 0.687282
vt 0.400879 0.687500
vt 0.400715 0.683751
vt 0.411987 0.683751
vt 0.411861 0.687282
vt 0.413379 0.687500
vt 0.413215 0.683751
vt 0.424487 0.683751
vt 0.424361 0.687282
vt 0.425879 0.687500
vt 0.425715 0.683751
vt 0.436987 0.683751
vt 0.436861 0.687282
vt 0.438379 0.687500
vt 0.438215 0.683751
vt 0.449487 0.683751
vt 0.449361 0.687282
vt 0.450879 0.687500
vt 0.450715 0.683751
vt 0.461987 0.683751
vt 0.461861 0.687282
vt 0.463379 0.687500
vt 0.463215 0.683751
vt 0.474487 0.683751
vt 0.474361 0.687282
vt 0.475879 0.687500
vt 0.475715 0.683751
vt 0.486987 0.683751
vt 0.486861 0.687282
vt 0.488379 0.687500
vt 0.488215 0.683751
vt 0.499487 0.683751
vt 0.499361 0.687282
vt 0.500879 0.687500
vt 0.500715 0.683751
vt 0.511987 0.683751
vt 0.511861 0.687282
vt 0.513379 0.687500
vt 0.513215 0.683751
vt 0.524487 0.683751
vt 0.524361 0.687282
vt 0.525879 0.687500
vt 0.525715 0.683751
vt 0.536987 0.683751
vt 0.536861 0.687282
vt 0.538379 0.687500
vt 0.538215 0.683751
vt 0.549487 0.683751
vt 0.549361 0.687282
vt 0.550879 0.687500
vt 0.550715 0.683751
vt 0.561987 0.683751
vt 0.561861 0.687282
vt 0.563379 0.687500
vt 0.563215 0.683751
vt 0.574487 0.683751
vt 0.574361 0.687282
vt 0.575879 0.687500
vt 0.575715 0.683751
vt 0.586987 0.683751
vt 0.586861 0.687282
vt 0.588378 0.687500
vt 0.588215 0.683751
vt 0.599487 0.683751
vt 0.599361 0.687282
vt 0.624487 0.683751
vt 0.613215 0.683751
vt 0.375715 0.683751
vt 0.386987 0.683751
vt 0.388215 0.683751
vt 0.399487 0.683751
vt 0.400715 0.683751
vt 0.411987 0.683751
vt 0.413215 0.683751
vt 0.424487 0.683751
vt 0.425715 0.683751
vt 0.436987 0.683751
vt 0.438215 0.683751
vt 0.449487 0.683751
vt 0.450715 0.683751
vt 0.461987 0.683751
vt 0.463215 0.683751
vt 0.474487 0.683751
vt 0.475715 0.683751
vt 0.486987 0.683751
vt 0.488215 0.683751
vt 0.499487 0.683751
vt 0.500715 0.683751
vt 0.511987 0.683751
vt 0.513215 0.683751
vt 0.524487 0.683751
vt 0.525715 0.683751
vt 0.536987 0.683751
vt 0.538215 0.683751
vt 0.549487 0.683751
vt 0.550715 0.683751
vt 0.561987 0.683751
vt 0.563215 0.683751
vt 0.574487 0.683751
vt 0.575715 0.683751
vt 0.586987 0.683751
vt 0.588215 0.683751
vt 0.599487 0.683751
vt 0.600715 0.683751
vt 0.611987 0.683751
vt 0.629701 0.885893
vt 0.610331 0.923910
vt 0.500000 0.843750
vt 0.580160 0.954080
vt 0.542142 0.973451
vt 0.500000 0.980126
vt 0.457858 0.973451
vt 0.419840 0.954080
vt 0.389670 0.923910
vt 0.370299 0.885892
vt 0.363624 0.843750
vt 0.370299 0.801608
vt 0.389670 0.763590
vt 0.419840 0.733420
vt 0.457858 0.714049
vt 0.500000 0.707374
vt 0.542142 0.714049
vt 0.580160 0.733420
vt 0.610331 0.763590
vt 0.629701 0.801608
vt 0.636376 0.843750
vt 0.624361 0.687282
vt 0.613378 0.687500
vt 0.386861 0.687282
vt 0.375879 0.687500
vt 0.611861 0.687282
vt 0.600878 0.687500
vt 0.399361 0.687282
vt 0.388379 0.687500
vt 0.411861 0.687282
vt 0.400879 0.687500
vt 0.424361 0.687282
vt 0.413379 0.687500
vt 0.436861 0.687282
vt 0.425879 0.687500
vt 0.449361 0.687282
vt 0.438379 0.687500
vt 0.461861 0.687282
vt 0.450879 0.687500
vt 0.474361 0.687282
vt 0.463379 0.687500
vt 0.486861 0.687282
vt 0.475879 0.687500
vt 0.499361 0.687282
vt 0.488379 0.687500
vt 0.511861 0.687282
vt 0.500879 0.687500
vt 0.524361 0.687282
vt 0.513379 0.687500
vt 0.536861 0.687282
vt 0.525879 0.687500
vt 0.549361 0.687282
vt 0.538379 0.687500
vt 0.561861 0.687282
vt 0.550879 0.687500
vt 0.574361 0.687282
vt 0.563379 0.687500
vt 0.586861 0.687282
vt 0.575879 0.687500
vt 0.599361 0.687282
vt 0.588378 0.687500
vn 0.265467 0.960254 -0.086255
vn 0.225819 0.960254 -0.164067
vn 0.223895 0.960942 -0.162670
vn 0.263205 0.960942 -0.085520
vn 0.164067 0.960254 -0.225819
vn 0.162669 0.960942 -0.223895
vn 0.086255 0.960254 -0.265467
vn 0.085520 0.960942 -0.263205
vn 0.000000 0.960254 -0.279128
vn -0.000000 0.960942 -0.276750
vn -0.086255 0.960254 -0.265467
vn -0.085520 0.960942 -0.263205
vn -0.164067 0.960254 -0.225819
vn -0.162670 0.960942 -0.223895
vn -0.225819 0.960254 -0.164067
vn -0.223895 0.960942 -0.162669
vn -0.265467 0.960254 -0.086255
vn -0.263205 0.960942 -0.085520
vn -0.279128 0.960254 0.000000
vn -0.276750 0.960942 -0.000000
vn -0.265467 0.960254 0.086255
vn -0.263205 0.960942 0.085521
vn -0.225819 0.960254 0.164067
vn -0.223895 0.960942 0.162670
vn -0.164067 0.960254 0.225819
vn -0.162670 0.960942 0.223895
vn -0.086255 0.960254 0.265467
vn -0.085520 0.960942 0.263205
vn 0.000000 0.960254 0.279128
vn 0.000000 0.960942 0.276750
vn 0.086255 0.960254 0.265467
vn 0.085520 0.960942 0.263205
vn 0.164067 0.960254 0.225819
vn 0.162670 0.960942 0.223895
vn 0.225819 0.960254 0.164067
vn 0.223895 0.960942 0.162669
vn 0.265466 0.960254 0.086255
vn 0.263205 0.960942 0.085520
vn 0.279128 0.960254 0.000000
vn 0.276750 0.960942 0.000000
vn 0.123475 0.991536 -0.040119
vn 0.123475 0.991536 -0.040119
vn 0.129829 0.991536 0.000000
vn 0.129829 0.991536 0.000000
vn 0.105034 0.991536 -0.076311
vn 0.105034 0.991536 -0.076311
vn 0.123474 0.991537 0.040119
vn 0.123474 0.991536 0.040119
vn 0.076311 0.991536 -0.105033
vn 0.076311 0.991536 -0.105033
vn 0.040119 0.991537 -0.123474
vn 0.040119 0.991537 -0.123474
vn 0.000000 0.991537 -0.129827
vn 0.000000 0.991537 -0.129827
vn -0.040119 0.991537 -0.123474
vn -0.040119 0.991537 -0.123474
vn -0.076312 0.991536 -0.105034
vn -0.076311 0.991536 -0.105034
vn -0.105034 0.991536 -0.076311
vn -0.105034 0.991536 -0.076311
vn -0.123474 0.991537 -0.040119
vn -0.123474 0.991537 -0.040119
vn -0.129828 0.991537 -0.000000
vn -0.129828 0.991537 -0.000000
vn -0.123474 0.991537 0.040119
vn -0.123474 0.991537 0.040119
vn -0.105033 0.991537 0.076311
vn -0.105033 0.991536 0.076311
vn -0.076312 0.991536 0.105033
vn -0.076311 0.991536 0.105033
vn -0.040119 0.991536 0.123474
vn -0.040119 0.991536 0.123474
vn 0.000000 0.991537 0.129828
vn 0.000000 0.991537 0.129828
vn 0.040119 0.991537 0.123474
vn 0.040119 0.991537 0.123474
vn 0.076311 0.991536 0.105033
vn 0.076311 0.991537 0.105034
vn 0.105033 0.991537 0.076311
vn 0.105033 0.991536 0.076311
vn 0.273649 0.957711 -0.088914
vn 0.287732 0.957711 0.000000
vn 0.232780 0.957711 -0.169125
vn 0.169124 0.957711 -0.232780
vn 0.088914 0.957711 -0.273649
vn -0.000000 0.957711 -0.287732
vn -0.088914 0.957711 -0.273649
vn -0.169125 0.957711 -0.232780
vn -0.232780 0.957711 -0.169124
vn -0.273649 0.957711 -0.088914
vn -0.287732 0.957711 -0.000000
vn -0.273649 0.957711 0.088914
vn -0.232780 0.957711 0.169125
vn -0.169124 0.957711 0.232780
vn -0.088914 0.957711 0.273649
vn 0.000000 0.957711 0.287732
vn 0.088914 0.957711 0.273649
vn 0.169125 0.957711 0.232780
vn 0.232780 0.957711 0.169125
vn 0.273649 0.957711 0.088914
vn -0.021509 0.999744 0.006989
vn -0.018296 0.999744 0.013293
vn 0.000000 1.000000 0.000000
vn -0.013293 0.999744 0.018296
vn -0.006989 0.999744 0.021509
vn -0.000000 0.999744 0.022615
vn 0.006989 0.999744 0.021509
vn 0.013293 0.999744 0.018296
vn 0.018296 0.999744 0.013293
vn 0.021509 0.999744 0.006989
vn 0.022615 0.999744 -0.000000
vn 0.021509 0.999744 -0.006989
vn 0.018296 0.999744 -0.013293
vn 0.013293 0.999744 -0.018296
vn 0.006989 0.999744 -0.021509
vn -0.000000 0.999744 -0.022615
vn -0.006989 0.999744 -0.021509
vn -0.013293 0.999744 -0.018296
vn -0.018296 0.999744 -0.013293
vn -0.021509 0.999744 -0.006989
vn -0.022615 0.999744 -0.000000
vn -0.493591 0.869694 -0.000001
vn -0.469431 0.869695 0.152527
vn 0.673843 0.705691 -0.218943
vn 0.708518 0.705692 0.000001
vn 0.573207 0.705688 -0.416460
vn -0.399322 0.869695 0.290125
vn -0.469433 0.869694 -0.152529
vn 0.673843 0.705690 0.218945
vn 0.416461 0.705685 -0.573210
vn -0.290124 0.869696 0.399322
vn 0.218946 0.705685 -0.673848
vn -0.152527 0.869696 0.469430
vn -0.000000 0.705686 -0.708525
vn -0.000000 0.869695 0.493589
vn -0.218946 0.705686 -0.673847
vn 0.152527 0.869696 0.469430
vn -0.416460 0.705688 -0.573207
vn 0.290123 0.869696 0.399321
vn -0.573206 0.705689 -0.416458
vn 0.399322 0.869696 0.290124
vn -0.673845 0.705688 -0.218945
vn 0.469433 0.869694 0.152529
vn -0.708523 0.705688 -0.000000
vn 0.493593 0.869693 -0.000000
vn -0.673846 0.705688 0.218946
vn 0.469433 0.869694 -0.152529
vn -0.573207 0.705688 0.416460
vn 0.399322 0.869696 -0.290123
vn -0.416459 0.705688 0.573207
vn 0.290123 0.869696 -0.399321
vn -0.218945 0.705688 0.673845
vn 0.152528 0.869695 -0.469431
vn 0.000000 0.705688 0.708523
vn -0.000000 0.869695 -0.493590
vn 0.218946 0.705688 0.673845
vn -0.152528 0.869695 -0.469431
vn 0.416459 0.705688 0.573207
vn -0.290124 0.869695 -0.399322
vn 0.573207 0.705687 0.416460
vn -0.399322 0.869695 -0.290125
s 1
g polySurface32
f 21/32/41 22/33/42 43/34/43 42/35/44
f 22/33/42 23/36/45 44/37/46 43/34/43
f 23/36/45 24/38/47 45/39/48 44/37/46
f 24/38/47 25/40/49 46/41/50 45/39/48
f 25/40/49 26/42/51 47/43/52 46/41/50
f 26/42/51 27/44/53 48/45/54 47/43/52
f 27/44/53 28/46/55 49/47/56 48/45/54
f 28/46/55 29/48/57 50/49/58 49/47/56
f 29/48/57 30/50/59 51/51/60 50/49/58
f 30/50/59 31/52/61 52/53/62 51/51/60
f 31/52/61 32/54/63 53/55/64 52/53/62
f 32/54/63 33/56/65 54/57/66 53/55/64
f 33/56/65 34/58/67 55/59/68 54/57/66
f 34/58/67 35/60/69 56/61/70 55/59/68
f 35/60/69 36/62/71 57/63/72 56/61/70
f 36/62/71 37/64/73 58/65/74 57/63/72
f 37/64/73 38/66/75 59/67/76 58/65/74
f 38/66/75 39/68/77 60/69/78 59/67/76
f 39/68/77 40/70/79 61/71/80 60/69/78
f 40/70/79 21/72/41 42/73/44 61/71/80
s 2
f 102/74/81 103/75/82 104/76/83 105/77/84
f 103/78/82 102/79/81 106/80/85 107/81/86
f 105/82/84 104/83/83 108/84/87 109/85/88
f 107/86/86 106/87/85 110/88/89 111/89/90
f 111/90/90 110/91/89 112/92/91 113/93/92
f 113/94/92 112/95/91 114/96/93 115/97/94
f 115/98/94 114/99/93 116/100/95 117/101/96
f 117/102/96 116/103/95 118/104/97 119/105/98
f 119/106/98 118/107/97 120/108/99 121/109/100
f 121/110/100 120/111/99 122/112/101 123/113/102
f 123/114/102 122/115/101 124/116/103 125/117/104
f 125/118/104 124/119/103 126/120/105 127/121/106
f 127/122/106 126/123/105 128/124/107 129/125/108
f 129/126/108 128/127/107 130/128/109 131/129/110
f 131/130/110 130/131/109 132/132/111 133/133/112
f 133/134/112 132/135/111 134/136/113 135/137/114
f 135/138/114 134/139/113 136/140/115 137/141/116
f 137/142/116 136/143/115 138/144/117 139/145/118
f 139/146/118 138/147/117 140/148/119 141/149/120
f 141/150/120 140/151/119 109/152/88 108/153/87
s 1
f 42/73/44 62/154/121 64/155/122 61/71/80
f 62/156/121 42/35/44 43/34/43 66/157/123
f 66/158/123 43/34/43 44/37/46 68/159/124
f 68/160/124 44/37/46 45/39/48 70/161/125
f 70/162/125 45/39/48 46/41/50 72/163/126
f 72/164/126 46/41/50 47/43/52 74/165/127
f 74/166/127 47/43/52 48/45/54 76/167/128
f 76/168/128 48/45/54 49/47/56 78/169/129
f 78/170/129 49/47/56 50/49/58 80/171/130
f 80/172/130 50/49/58 51/51/60 82/173/131
f 82/174/131 51/51/60 52/53/62 84/175/132
f 84/176/132 52/53/62 53/55/64 86/177/133
f 86/178/133 53/55/64 54/57/66 88/179/134
f 88/180/134 54/57/66 55/59/68 90/181/135
f 90/182/135 55/59/68 56/61/70 92/183/136
f 92/184/136 56/61/70 57/63/72 94/185/137
f 94/186/137 57/63/72 58/65/74 96/187/138
f 96/188/138 58/65/74 59/67/76 98/189/139
f 98/190/139 59/67/76 60/69/78 100/191/140
f 100/192/140 60/69/78 61/71/80 64/193/122
s 3
f 63/194/141 67/195/142 41/196/143
f 67/195/142 69/197/144 41/196/143
f 69/197/144 71/198/145 41/196/143
f 71/198/145 73/199/146 41/196/143
f 73/199/146 75/200/147 41/196/143
f 75/200/147 77/201/148 41/196/143
f 77/201/148 79/202/149 41/196/143
f 79/202/149 81/203/150 41/196/143
f 81/203/150 83/204/151 41/196/143
f 83/204/151 85/205/152 41/196/143
f 85/205/152 87/206/153 41/196/143
f 87/206/153 89/207/154 41/196/143
f 89/207/154 91/208/155 41/196/143
f 91/208/155 93/209/156 41/196/143
f 93/209/156 95/210/157 41/196/143
f 95/210/157 97/211/158 41/196/143
f 97/211/158 99/212/159 41/196/143
f 99/212/159 101/213/160 41/196/143
f 101/213/160 65/214/161 41/196/143
f 65/214/161 63/194/141 41/196/143
f 63/215/141 65/216/161 104/76/162 103/75/163
s 1
f 64/155/122 62/154/121 102/74/164 105/77/165
f 62/156/121 66/157/123 106/80/166 102/79/164
s 3
f 67/217/142 63/218/141 103/78/163 107/81/167
f 65/219/161 101/220/160 108/84/168 104/83/162
s 1
f 100/192/140 64/193/122 105/82/165 109/85/169
f 66/158/123 68/159/124 110/88/170 106/87/166
s 3
f 69/221/144 67/222/142 107/86/167 111/89/171
s 1
f 68/160/124 70/161/125 112/92/172 110/91/170
s 3
f 71/223/145 69/224/144 111/90/171 113/93/173
s 1
f 70/162/125 72/163/126 114/96/174 112/95/172
s 3
f 73/225/146 71/226/145 113/94/173 115/97/175
s 1
f 72/164/126 74/165/127 116/100/176 114/99/174
s 3
f 75/227/147 73/228/146 115/98/175 117/101/177
s 1
f 74/166/127 76/167/128 118/104/178 116/103/176
s 3
f 77/229/148 75/230/147 117/102/177 119/105/179
s 1
f 76/168/128 78/169/129 120/108/180 118/107/178
s 3
f 79/231/149 77/232/148 119/106/179 121/109/181
s 1
f 78/170/129 80/171/130 122/112/182 120/111/180
s 3
f 81/233/150 79/234/149 121/110/181 123/113/183
s 1
f 80/172/130 82/173/131 124/116/184 122/115/182
s 3
f 83/235/151 81/236/150 123/114/183 125/117/185
s 1
f 82/174/131 84/175/132 126/120/186 124/119/184
s 3
f 85/237/152 83/238/151 125/118/185 127/121/187
s 1
f 84/176/132 86/177/133 128/124/188 126/123/186
s 3
f 87/239/153 85/240/152 127/122/187 129/125/189
s 1
f 86/178/133 88/179/134 130/128/190 128/127/188
s 3
f 89/241/154 87/242/153 129/126/189 131/129/191
s 1
f 88/180/134 90/181/135 132/132/192 130/131/190
s 3
f 91/243/155 89/244/154 131/130/191 133/133/193
s 1
f 90/182/135 92/183/136 134/136/194 132/135/192
s 3
f 93/245/156 91/246/155 133/134/193 135/137/195
s 1
f 92/184/136 94/185/137 136/140/196 134/139/194
s 3
f 95/247/157 93/248/156 135/138/195 137/141/197
s 1
f 94/186/137 96/187/138 138/144/198 136/143/196
s 3
f 97/249/158 95/250/157 137/142/197 139/145/199
s 1
f 96/188/138 98/189/139 140/148/200 138/147/198
s 3
f 99/251/159 97/252/158 139/146/199 141/149/201
s 1
f 98/190/139 100/191/140 109/152/169 140/151/200
s 3
f 101/253/160 99/254/159 141/150/201 108/153/168
g default
v 0.209203 0.604478 -0.609542
v -0.116875 0.604478 -0.846451
v -0.519929 0.604478 -0.846451
v -0.846007 0.604478 -0.609542
v -0.970557 0.604478 -0.226214
v -0.846006 0.604478 0.157113
v -0.519929 0.604478 0.394022
v -0.116875 0.604478 0.394022
v 0.209203 0.604478 0.157113
v 0.333753 0.604478 -0.226214
v 0.207744 1.591601 -0.608482
v -0.117432 1.591601 -0.844735
v -0.519372 1.591601 -0.844735
v -0.844547 1.591601 -0.608482
v -0.968754 1.591601 -0.226214
v -0.844547 1.591601 0.156053
v -0.519372 1.591601 0.392306
v -0.117432 1.591601 0.392306
v 0.207744 1.591601 0.156053
v 0.331950 1.591601 -0.226214
vt 0.375000 0.312500
vt 0.400000 0.312500
vt 0.425000 0.312500
vt 0.450000 0.312500
vt 0.475000 0.312500
vt 0.500000 0.312500
vt 0.525000 0.312500
vt 0.550000 0.312500
vt 0.575000 0.312500
vt 0.600000 0.312500
vt 0.625000 0.312500
vt 1.000000 1.000000
vt 0.000000 1.000000
vt 1.000000 1.000000
vt 0.000000 1.000000
vt 1.000000 1.000000
vt 0.000000 1.000000
vt 1.000000 1.000000
vt 0.000000 1.000000
vt 1.000000 1.000000
vt 0.000000 1.000000
vt 1.000000 1.000000
vt 0.000000 1.000000
vt 1.000000 1.000000
vt 0.000000 1.000000
vt 1.000000 1.000000
vt 0.000000 1.000000
vt 1.000000 1.000000
vt 0.000000 1.000000
vt 1.000000 1.000000
vt 0.000000 1.000000
vn 0.587784 0.001738 -0.809016
vn 0.587784 0.001738 -0.809016
vn 0.587784 0.001738 -0.809016
vn 0.587784 0.001738 -0.809016
vn 0.000000 0.001739 -0.999999
vn 0.000000 0.001739 -0.999999
vn 0.000000 0.001739 -0.999999
vn 0.000000 0.001739 -0.999999
vn -0.587784 0.001738 -0.809016
vn -0.587784 0.001738 -0.809016
vn -0.587784 0.001738 -0.809016
vn -0.587784 0.001738 -0.809016
vn -0.951055 0.001738 -0.309017
vn -0.951055 0.001738 -0.309017
vn -0.951055 0.001738 -0.309017
vn -0.951055 0.001738 -0.309017
vn -0.951055 0.001737 0.309017
vn -0.951055 0.001737 0.309017
vn -0.951055 0.001737 0.309017
vn -0.951055 0.001737 0.309017
vn -0.587784 0.001738 0.809016
vn -0.587784 0.001738 0.809016
vn -0.587784 0.001738 0.809016
vn -0.587784 0.001738 0.809016
vn 0.000000 0.001739 0.999999
vn 0.000000 0.001739 0.999999
vn 0.000000 0.001739 0.999999
vn 0.000000 0.001739 0.999999
vn 0.587784 0.001738 0.809016
vn 0.587784 0.001738 0.809016
vn 0.587784 0.001738 0.809016
vn 0.587784 0.001738 0.809016
vn 0.951055 0.001737 0.309017
vn 0.951055 0.001737 0.309017
vn 0.951055 0.001737 0.309017
vn 0.951055 0.001737 0.309017
vn 0.951055 0.001737 -0.309017
vn 0.951055 0.001737 -0.309017
vn 0.951055 0.001737 -0.309017
vn 0.951055 0.001737 -0.309017
s off
g pCylinder20
f 143/256/202 153/266/203 152/267/204 142/255/205
f 144/257/206 154/268/207 153/269/208 143/256/209
f 145/258/210 155/270/211 154/271/212 144/257/213
f 146/259/214 156/272/215 155/273/216 145/258/217
f 147/260/218 157/274/219 156/275/220 146/259/221
f 148/261/222 158/276/223 157/277/224 147/260/225
f 149/262/226 159/278/227 158/279/228 148/261/229
f 150/263/230 160/280/231 159/281/232 149/262/233
f 151/264/234 161/282/235 160/283/236 150/263/237
f 142/265/238 152/284/239 161/285/240 151/264/241
